# xmcd CD database file
#
# Track frame offsets:
#	150
#	25255
#	59837
#	91602
#	115647
#	157975
#	180355
#	205852
#	242725
#
# Disc length: 3479 seconds
#
# Revision: 4
# Processed by: cddbd v1.4PL0 Copyright (c) Steve Scherf et al.
# Submitted via: CDex 1.50
#
DISCID=680d9509
DTITLE=Kelly Hunt - Inspiration
DYEAR=2002
DGENRE=Blues
TTITLE0=Inspiration
TTITLE1=Stronger Wings
TTITLE2=Treat Me Right
TTITLE3=Back in the Saddle
TTITLE4=Queen of the 88's
TTITLE5=Forgive and Forget
TTITLE6=Just Like Oxygen
TTITLE7=Natural Thing
TTITLE8=Love Never Dies (Lullaby for Charles)
EXTD=Kelly Hunt - Inspiration - Kelly Hunt Live YEAR: 2002
EXTT0=
EXTT1=
EXTT2=
EXTT3=
EXTT4=
EXTT5=
EXTT6=
EXTT7=
EXTT8=
PLAYORDER=
